<?xml version="1.0" encoding="iso-8859-1"?>

<!DOCTYPE svg PUBLIC "-//W3C//DTD SVG 1.1//EN" "http://www.w3.org/Graphics/SVG/1.1/DTD/svg11.dtd">
<!-- Uploaded to: SVG Repo, www.svgrepo.com, Generator: SVG Repo Mixer Tools -->
<svg height="800px" width="800px" version="1.1" id="_x34_" xmlns="http://www.w3.org/2000/svg" xmlns:xlink="http://www.w3.org/1999/xlink" 
	 viewBox="0 0 256 512"  xml:space="preserve">
<g>
	<g>
		<path style="fill:#F3D042;" d="M135.539,2.417c1.425-3.223,3.742-3.223,5.161,0l5.48,12.434c1.425,3.223,5.444,5.541,8.939,5.155
			l13.514-1.473c3.483-0.375,4.653,1.635,2.577,4.472l-8.027,10.967c-2.082,2.837-2.082,7.485,0,10.321l8.027,10.968
			c2.076,2.836,0.906,4.846-2.577,4.46l-13.514-1.46c-3.495-0.38-7.515,1.944-8.939,5.161l-5.48,12.428
			c-1.418,3.223-3.736,3.223-5.161,0l-5.487-12.428c-1.419-3.217-5.438-5.541-8.933-5.161l-13.508,1.46
			c-3.495,0.386-4.666-1.624-2.583-4.46l8.028-10.968c2.077-2.836,2.077-7.484,0-10.321l-8.028-10.967
			c-2.082-2.837-0.912-4.847,2.583-4.472l13.508,1.473c3.495,0.386,7.515-1.931,8.933-5.155L135.539,2.417z"/>
	</g>
	<g>
		<path style="fill:#9D897E;" d="M175.744,497.611c0,7.949-6.434,14.389-14.389,14.389h-46.488c-7.944,0-14.378-6.44-14.378-14.389
			v-91.298c0-7.949,6.434-14.383,14.378-14.383h46.488c7.955,0,14.389,6.434,14.389,14.383V497.611z"/>
		<path style="fill:#917D73;" d="M175.744,497.611v-91.298l-47.116-14.383h-14.619l-12.687,46.506L141.062,512h20.293
			C169.31,512,175.744,505.56,175.744,497.611z"/>
	</g>
	<g>
		<path style="fill:#E9C01B;" d="M241.631,325.752c-3.995-5.746-3.277-13.514,1.69-18.427l11.474-11.347
			c5.137-5.095,5.698-13.201,1.304-18.959l-42.233-55.325c-4.6-6.024-3.73-14.589,1.985-19.574l4.563-3.959
			c5.861-5.113,6.61-13.949,1.678-19.967l-72.853-88.926c-2.722-3.331-6.809-5.263-11.124-5.263c-4.304,0-8.39,1.932-11.124,5.263
			l-72.847,88.926c-4.931,6.018-4.189,14.854,1.677,19.967l4.569,3.959c5.716,4.985,6.579,13.551,1.98,19.574l-42.239,55.325
			c-4.388,5.758-3.826,13.864,1.316,18.959l11.468,11.347c4.961,4.913,5.679,12.681,1.69,18.427L2.575,371.878
			c-2.668,3.827-3.302,8.71-1.72,13.104c1.593,4.376,5.209,7.72,9.699,8.958l123.741,34.145c2.505,0.682,5.143,0.682,7.654,0
			l123.729-34.145c4.496-1.237,8.112-4.582,9.699-8.958c1.582-4.394,0.948-9.277-1.708-13.104L241.631,325.752z"/>
		<path style="fill:#FFFFFF;" d="M256.099,277.018l-3.241-4.244L1.628,373.441c-1.841,3.549-2.149,7.726-0.773,11.54
			c0.525,1.431,1.268,2.753,2.185,3.93l255.993-102.579C259.16,283.078,258.212,279.783,256.099,277.018z"/>
		<path style="fill:#69AF32;" d="M213.867,221.694c-4.6-6.024-3.73-14.589,1.985-19.574l4.563-3.959
			c5.861-5.113,6.61-13.949,1.678-19.967l-2.613-3.187L44.489,245.119l-24.355,31.9c-4.388,5.758-3.826,13.864,1.316,18.959
			l11.468,11.347c4.961,4.913,5.679,12.681,1.69,18.427L2.575,371.878c-0.35,0.501-0.67,1.026-0.948,1.564l251.231-100.667
			L213.867,221.694z"/>
		<path style="fill:#D8281C;" d="M10.555,393.939l123.741,34.145c2.505,0.682,5.143,0.682,7.654,0l123.729-34.145
			c4.496-1.237,8.112-4.582,9.699-8.958c1.582-4.394,0.948-9.277-1.708-13.104l-32.038-46.126
			c-3.995-5.746-3.277-13.514,1.69-18.427l11.474-11.347c2.668-2.65,4.092-6.121,4.238-9.646L3.04,388.911
			C4.917,391.319,7.537,393.106,10.555,393.939z"/>
		<polygon style="fill:#FFFFFF;" points="209.78,163.164 61.781,222.473 44.489,245.119 219.48,175.007 		"/>
	</g>
</g>
</svg>